<svg width="152" height="152" viewBox="0 0 152 152" fill="none" xmlns="http://www.w3.org/2000/svg">
<path d="M151.4 76.0707C151.4 117.819 117.546 151.661 75.7996 151.661C34.0529 151.661 0.212891 117.819 0.212891 76.0707C0.212891 34.3227 34.0529 0.480072 75.7996 0.480072C117.546 0.480072 151.4 34.3227 151.4 76.0707Z" fill="white"></path>
<path d="M75.7995 63.7878C69.0128 63.7878 63.5195 69.2865 63.5195 76.0705C63.5195 82.8545 69.0128 88.3545 75.7995 88.3545C82.5861 88.3545 88.0794 82.8545 88.0794 76.0705C88.0794 69.2865 82.5861 63.7878 75.7995 63.7878Z" fill="#3EB1A7"></path>
<path d="M72.1199 26.4773C62.8265 26.4773 54.9331 33.2786 53.5464 42.472L40.1064 132.304H44.4265C53.7198 132.304 61.6132 125.499 62.9865 116.303L66.2131 94.7493C66.3198 94.0146 66.6398 91.9013 67.0798 88.972C62.8664 86.168 60.0932 81.3826 60.0932 75.9586C60.0932 68.8826 64.8131 62.8986 71.2798 60.9786C72.2798 54.2653 73.0398 49.2426 73.0398 49.2426C73.6131 45.3893 76.9332 42.54 80.8265 42.54H97.8398C107.146 42.54 115.04 35.7333 116.413 26.5373L116.426 26.4773H72.1199Z" fill="#0C0C0D"></path>
</svg>